<svg width="200" height="200" viewBox="0 0 200 200" version="1.1" xmlns="http://www.w3.org/2000/svg" xmlns:xlink="http://www.w3.org/1999/xlink">
<title>Group</title>
<desc>Created using Figma</desc>
<g id="Canvas" transform="translate(-5035 -115)">
<g id="Group">

<!-- Logo ring -->
<g class='ring' id="Ellipse">
<mask id="mask0_outline_ins">
<use xlink:href="#path0_fill" fill="white" transform="translate(5035 115)"/>
</mask>
<g mask="url(#mask0_outline_ins)">
<use xlink:href="#path1_stroke_2x" transform="translate(5035 115)" fill="#64D640"/>
</g>
</g>

<!-- J letter -->
<g class='j-letter' id="J">
<use xlink:href="#path2_fill" transform="translate(5095 159)" fill="#64D640"/>
</g>

<!-- H letter -->
<g class='h-letter' id="h">
<use xlink:href="#path3_fill" transform="translate(5130 176)" fill="#64D640"/>
<mask id="mask1_outline_out">
<rect id="mask1_outline_inv" fill="white" x="5" y="18" width="33" height="52" transform="translate(5130 176)"/>
<use xlink:href="#path3_fill" fill="black" transform="translate(5130 176)"/>
</mask>
<g mask="url(#mask1_outline_out)">
<use xlink:href="#path4_stroke_2x" transform="translate(5130 176)" fill="#64D640"/>
</g>
</g>
</g>
</g>

<defs>
<path id="path0_fill" d="M 200 100C 200 155.228 155.228 200 100 200C 44.7715 200 0 155.228 0 100C 0 44.7715 44.7715 0 100 0C 155.228 0 200 44.7715 200 100Z"/>
<path id="path1_stroke_2x" d="M 196 100C 196 153.019 153.019 196 100 196L 100 204C 157.438 204 204 157.438 204 100L 196 100ZM 100 196C 46.9807 196 4 153.019 4 100L -4 100C -4 157.438 42.5624 204 100 204L 100 196ZM 4 100C 4 46.9807 46.9807 4 100 4L 100 -4C 42.5624 -4 -4 42.5624 -4 100L 4 100ZM 100 4C 153.019 4 196 46.9807 196 100L 204 100C 204 42.5624 157.438 -4 100 -4L 100 4Z"/>
<path id="path2_fill" d="M 13.5 83.3C 15.4333 86.2333 17.6 88.4 20 89.8C 22.4 91.2 24.8667 91.9 27.4 91.9C 32.1333 91.9 35.5667 90.6667 37.7 88.2C 39.9 85.6667 41 81.7 41 76.3L 41 39.3L 13.5 39.3L 13.5 32.3L 49.3 32.3L 49.3 77C 49.3 80.0667 48.9333 82.9667 48.2 85.7C 47.4667 88.3667 46.2333 90.7 44.5 92.7C 42.8333 94.7 40.6 96.3 37.8 97.5C 35.0667 98.6333 31.6667 99.2 27.6 99.2C 23.8667 99.2 20.2333 98.3333 16.7 96.6C 13.2333 94.8667 10.3667 92.1 8.1 88.3L 13.5 83.3Z"/>
<path id="path3_fill" d="M 6.51 19.16L 12.25 19.16L 12.25 32.74L 11.97 40.79C 13.79 38.8767 15.7267 37.29 17.78 36.03C 19.8333 34.77 22.19 34.14 24.85 34.14C 28.91 34.14 31.8733 35.3067 33.74 37.64C 35.6533 39.9267 36.61 43.3333 36.61 47.86L 36.61 69L 30.87 69L 30.87 48.63C 30.87 45.41 30.2633 43.03 29.05 41.49C 27.8367 39.9033 25.83 39.11 23.03 39.11C 22.0033 39.11 21.0467 39.25 20.16 39.53C 19.32 39.7633 18.48 40.1367 17.64 40.65C 16.8 41.1633 15.9367 41.8167 15.05 42.61C 14.1633 43.3567 13.23 44.2433 12.25 45.27L 12.25 69L 6.51 69L 6.51 19.16Z"/>
<path id="path4_stroke_2x" d="M 6.51 19.16L 6.51 18.16L 5.51 18.16L 5.51 19.16L 6.51 19.16ZM 12.25 19.16L 13.25 19.16L 13.25 18.16L 12.25 18.16L 12.25 19.16ZM 12.25 32.74L 13.2494 32.7748L 13.25 32.7574L 13.25 32.74L 12.25 32.74ZM 11.97 40.79L 10.9706 40.7552L 10.879 43.3878L 12.6946 41.4792L 11.97 40.79ZM 17.78 36.03L 18.303 36.8823L 18.303 36.8823L 17.78 36.03ZM 33.74 37.64L 32.9591 38.2647L 32.966 38.2733L 32.9731 38.2817L 33.74 37.64ZM 36.61 69L 36.61 70L 37.61 70L 37.61 69L 36.61 69ZM 30.87 69L 29.87 69L 29.87 70L 30.87 70L 30.87 69ZM 29.05 41.49L 28.2556 42.0974L 28.26 42.1032L 28.2645 42.1089L 29.05 41.49ZM 20.16 39.53L 20.4276 40.4935L 20.4445 40.4888L 20.4611 40.4836L 20.16 39.53ZM 17.64 40.65L 18.1615 41.5033L 18.1615 41.5033L 17.64 40.65ZM 15.05 42.61L 15.6941 43.3749L 15.7056 43.3652L 15.7168 43.3552L 15.05 42.61ZM 12.25 45.27L 11.5266 44.5795L 11.25 44.8693L 11.25 45.27L 12.25 45.27ZM 12.25 69L 12.25 70L 13.25 70L 13.25 69L 12.25 69ZM 6.51 69L 5.51 69L 5.51 70L 6.51 70L 6.51 69ZM 6.51 20.16L 12.25 20.16L 12.25 18.16L 6.51 18.16L 6.51 20.16ZM 11.25 19.16L 11.25 32.74L 13.25 32.74L 13.25 19.16L 11.25 19.16ZM 11.2506 32.7052L 10.9706 40.7552L 12.9694 40.8248L 13.2494 32.7748L 11.2506 32.7052ZM 12.6946 41.4792C 14.4604 39.6228 16.3304 38.0928 18.303 36.8823L 17.257 35.1777C 15.123 36.4872 13.1196 38.1305 11.2454 40.1008L 12.6946 41.4792ZM 18.303 36.8823C 20.1829 35.7288 22.3548 35.14 24.85 35.14L 24.85 33.14C 22.0252 33.14 19.4838 33.8112 17.257 35.1777L 18.303 36.8823ZM 24.85 35.14C 28.7222 35.14 31.3445 36.2464 32.9591 38.2647L 34.5209 37.0153C 32.4022 34.3669 29.0978 33.14 24.85 33.14L 24.85 35.14ZM 32.9731 38.2817C 34.675 40.3157 35.61 43.4514 35.61 47.86L 37.61 47.86C 37.61 43.2153 36.6317 39.5376 34.5069 36.9983L 32.9731 38.2817ZM 35.61 47.86L 35.61 69L 37.61 69L 37.61 47.86L 35.61 47.86ZM 36.61 68L 30.87 68L 30.87 70L 36.61 70L 36.61 68ZM 31.87 69L 31.87 48.63L 29.87 48.63L 29.87 69L 31.87 69ZM 31.87 48.63C 31.87 45.3183 31.2522 42.6693 29.8355 40.8711L 28.2645 42.1089C 29.2745 43.3907 29.87 45.5017 29.87 48.63L 31.87 48.63ZM 29.8444 40.8825C 28.3736 38.9593 26.0087 38.11 23.03 38.11L 23.03 40.11C 25.6513 40.11 27.2997 40.8474 28.2556 42.0974L 29.8444 40.8825ZM 23.03 38.11C 21.9117 38.11 20.8525 38.2626 19.8589 38.5764L 20.4611 40.4836C 21.2408 40.2374 22.0949 40.11 23.03 40.11L 23.03 38.11ZM 19.8924 38.5665C 18.9524 38.8276 18.0276 39.2412 17.1185 39.7967L 18.1615 41.5033C 18.9324 41.0321 19.6876 40.6991 20.4276 40.4935L 19.8924 38.5665ZM 17.1186 39.7967C 16.2176 40.3473 15.306 41.0391 14.3832 41.8648L 15.7168 43.3552C 16.5674 42.5942 17.3824 41.9794 18.1615 41.5033L 17.1186 39.7967ZM 14.4059 41.8451C 13.4861 42.6196 12.5264 43.5322 11.5266 44.5795L 12.9734 45.9605C 13.9336 44.9545 14.8405 44.0937 15.6941 43.3749L 14.4059 41.8451ZM 11.25 45.27L 11.25 69L 13.25 69L 13.25 45.27L 11.25 45.27ZM 12.25 68L 6.51 68L 6.51 70L 12.25 70L 12.25 68ZM 7.51 69L 7.51 19.16L 5.51 19.16L 5.51 69L 7.51 69Z"/>
</defs>
</svg>
